# xmcd
#
# Track frame offsets: 
#        150
#        13272
#        29240
#        44322
#        55810
#        69695
#        80142
#        100337
#        117920
#        137612
#        153230
#        169600
#        189240
#        200870
#        215795
#        225200
#        239030
#        251997
#        266650
#
# Disc length: 3680 seconds
#
# Revision: 1
# Processed by: cddbd v1.5.2PL0 Copyright (c) Steve Scherf et al.
# Submitted via: ExactAudioCopy v0.90b4
#
DISCID=1f0e5e13
DTITLE=Willie Nelson - The Greatest Hits [CD2]
DYEAR=1995
DGENRE=Country
TTITLE0=Good Hearted Woman
TTITLE1=Whiskey River
TTITLE2=Nothing I Can Do About It Now
TTITLE3=Afraid
TTITLE4=Are There Any More Real Cowboys
TTITLE5=December Day
TTITLE6=Angel Flying Too Close To The Ground
TTITLE7=Stardust
TTITLE8=Georgia On My Mind
TTITLE9=I'm Falling In Love
TTITLE10=Valentine
TTITLE11=A Song For You
TTITLE12=Don't Get Around Much Anymore
TTITLE13=South Of The Border
TTITLE14=Please Don't Talk About Me When I'm Gone
TTITLE15=Funny How Time Slips Away
TTITLE16=Crazy
TTITLE17=Who'll Buy My Memories
TTITLE18=If You've Got The Money, I've Got The Time
EXTD=
EXTT0=
EXTT1=
EXTT2=
EXTT3=
EXTT4=
EXTT5=
EXTT6=
EXTT7=
EXTT8=
EXTT9=
EXTT10=
EXTT11=
EXTT12=
EXTT13=
EXTT14=
EXTT15=
EXTT16=
EXTT17=
EXTT18=
PLAYORDER=
